<?xml version="1.0" encoding="UTF-8"?>
<svg xmlns="http://www.w3.org/2000/svg" xmlns:xlink="http://www.w3.org/1999/xlink" width="150px" height="150px" viewBox="0 0 256 256" version="1.1">
<g id="surface1">
<path style=" stroke:none;fill-rule:evenodd;fill:rgb(9.019608%,46.666667%,94.901961%);fill-opacity:1;" d="M 224.722656 0 C 241.984375 0 256 14.015625 256 31.277344 L 256 224.722656 C 256 241.984375 241.984375 256 224.722656 256 L 171.488281 256 L 171.488281 159.542969 L 204.789062 159.542969 L 211.125 118.230469 L 171.488281 118.230469 L 171.488281 91.421875 C 171.488281 80.121094 177.027344 69.105469 194.777344 69.105469 L 212.800781 69.105469 L 212.800781 33.933594 C 212.800781 33.933594 196.445312 31.144531 180.808594 31.144531 C 148.164062 31.144531 126.828125 50.929688 126.828125 86.746094 L 126.828125 118.230469 L 90.542969 118.230469 L 90.542969 159.542969 L 126.828125 159.542969 L 126.828125 256 L 31.277344 256 C 14.015625 256 0 241.984375 0 224.722656 L 0 31.277344 C 0 14.015625 14.015625 0 31.277344 0 Z M 224.722656 0 "/>
</g>
</svg>
