<?xml version="1.0" encoding="UTF-8"?>
<svg xmlns="http://www.w3.org/2000/svg" xmlns:xlink="http://www.w3.org/1999/xlink" width="150px" height="150px" viewBox="0 0 384 384" version="1.1">
<defs>
<linearGradient id="linear0" gradientUnits="userSpaceOnUse" x1="328.269989" y1="508.049988" x2="183.729996" y2="3.95" gradientTransform="matrix(0.75,0,0,0.75,0,0)">
<stop offset="0" style="stop-color:rgb(100%,85.882353%,45.098039%);stop-opacity:1;"/>
<stop offset="0.08" style="stop-color:rgb(99.215686%,67.843137%,30.588235%);stop-opacity:1;"/>
<stop offset="0.15" style="stop-color:rgb(98.431373%,51.372549%,18.039216%);stop-opacity:1;"/>
<stop offset="0.19" style="stop-color:rgb(98.039216%,45.098039%,12.941176%);stop-opacity:1;"/>
<stop offset="0.23" style="stop-color:rgb(96.470588%,41.176471%,18.431373%);stop-opacity:1;"/>
<stop offset="0.37" style="stop-color:rgb(90.980392%,29.019608%,35.294118%);stop-opacity:1;"/>
<stop offset="0.48" style="stop-color:rgb(87.843137%,21.176471%,45.882353%);stop-opacity:1;"/>
<stop offset="0.55" style="stop-color:rgb(86.666667%,18.431373%,49.803922%);stop-opacity:1;"/>
<stop offset="0.68" style="stop-color:rgb(70.588235%,23.921569%,59.215686%);stop-opacity:1;"/>
<stop offset="0.97" style="stop-color:rgb(30.196078%,37.647059%,83.137255%);stop-opacity:1;"/>
<stop offset="1" style="stop-color:rgb(25.882353%,39.215686%,85.882353%);stop-opacity:1;"/>
</linearGradient>
</defs>
<g id="surface1">
<path style=" stroke:none;fill-rule:nonzero;fill:url(#linear0);" d="M 98.023438 17.601562 L 285.976562 17.601562 C 330.390625 17.601562 366.398438 53.609375 366.398438 98.023438 L 366.398438 285.976562 C 366.398438 330.390625 330.390625 366.398438 285.976562 366.398438 L 98.023438 366.398438 C 53.609375 366.398438 17.601562 330.390625 17.601562 285.976562 L 17.601562 98.023438 C 17.601562 53.609375 53.609375 17.601562 98.023438 17.601562 Z M 98.023438 17.601562 "/>
<path style=" stroke:none;fill-rule:nonzero;fill:rgb(100%,100%,100%);fill-opacity:1;" d="M 248.25 86.414062 C 275.8125 86.527344 298.125 108.839844 298.238281 136.402344 L 298.238281 247.597656 C 298.125 275.160156 275.8125 297.472656 248.25 297.585938 L 135.75 297.585938 C 108.1875 297.472656 85.875 275.160156 85.761719 247.597656 L 85.761719 136.402344 C 85.875 108.839844 108.1875 86.527344 135.75 86.414062 L 248.25 86.414062 M 248.25 63.164062 L 135.75 63.164062 C 95.46875 63.164062 62.503906 96.164062 62.503906 136.410156 L 62.503906 247.597656 C 62.503906 287.878906 95.503906 320.84375 135.75 320.84375 L 248.25 320.84375 C 288.53125 320.84375 321.496094 287.84375 321.496094 247.597656 L 321.496094 136.402344 C 321.496094 96.121094 288.53125 63.15625 248.25 63.15625 Z M 248.25 63.164062 "/>
<path style=" stroke:none;fill-rule:nonzero;fill:rgb(100%,100%,100%);fill-opacity:1;" d="M 192 148.597656 C 215.96875 148.597656 235.402344 168.03125 235.402344 192 C 235.402344 215.96875 215.96875 235.402344 192 235.402344 C 168.03125 235.402344 148.597656 215.96875 148.597656 192 C 148.625 168.042969 168.042969 148.625 192 148.597656 M 192 125.347656 C 155.1875 125.347656 125.347656 155.1875 125.347656 192 C 125.347656 228.8125 155.1875 258.652344 192 258.652344 C 228.8125 258.652344 258.652344 228.8125 258.652344 192 C 258.652344 155.1875 228.8125 125.347656 192 125.347656 Z M 192 125.347656 "/>
<path style=" stroke:none;fill-rule:nonzero;fill:rgb(100%,100%,100%);fill-opacity:1;" d="M 275.910156 122.421875 C 275.910156 113.695312 268.835938 106.621094 260.109375 106.621094 C 251.378906 106.621094 244.304688 113.695312 244.304688 122.421875 C 244.304688 131.148438 251.378906 138.226562 260.109375 138.226562 C 268.835938 138.226562 275.910156 131.148438 275.910156 122.421875 Z M 275.910156 122.421875 "/>
</g>
</svg>
