<?xml version="1.0" encoding="UTF-8"?>
<svg xmlns="http://www.w3.org/2000/svg" xmlns:xlink="http://www.w3.org/1999/xlink" width="150px" height="150px" viewBox="0 0 384 384" version="1.1">
<g id="surface1">
<path style=" stroke:none;fill-rule:evenodd;fill:rgb(15.686275%,40.392157%,69.803923%);fill-opacity:1;" d="M 384 48 C 384 21.507812 362.492188 0 336 0 L 48 0 C 21.507812 0 0 21.507812 0 48 L 0 336 C 0 362.492188 21.507812 384 48 384 L 336 384 C 362.492188 384 384 362.492188 384 336 Z M 384 48 "/>
<path style=" stroke:none;fill-rule:evenodd;fill:rgb(100%,100%,100%);fill-opacity:1;" d="M 45.789062 134 L 110.109375 134 L 110.109375 327.472656 L 45.789062 327.472656 Z M 45.789062 134 "/>
<path style=" stroke:none;fill-rule:nonzero;fill:rgb(100%,100%,100%);fill-opacity:1;" d="M 78.382812 40.710938 C 56.378906 40.710938 42 55.175781 42 74.140625 C 42 92.703125 55.941406 107.570312 77.53125 107.570312 L 77.949219 107.570312 C 100.375 107.570312 114.335938 92.703125 114.335938 74.140625 C 113.917969 55.175781 100.378906 40.710938 78.382812 40.710938 Z M 78.382812 40.710938 "/>
<path style=" stroke:none;fill-rule:nonzero;fill:rgb(100%,100%,100%);fill-opacity:1;" d="M 267.957031 129.449219 C 233.839844 129.449219 218.558594 148.214844 210 161.390625 L 210 134 L 145.699219 134 C 146.550781 152.148438 145.699219 327.472656 145.699219 327.472656 L 210 327.472656 L 210 219.421875 C 210 213.640625 210.417969 207.859375 212.121094 203.726562 C 216.761719 192.175781 227.351562 180.210938 245.117188 180.210938 C 268.375 180.210938 277.691406 197.957031 277.691406 223.957031 L 277.691406 327.472656 L 342 327.472656 L 342 216.523438 C 342 157.097656 310.269531 129.449219 267.957031 129.449219 Z M 267.957031 129.449219 "/>
</g>
</svg>
